SIPNOSIS

Happy Gilmore era un fanático jugador de hockey y ahora no tiene objetivos en su vida. Cuando su novia le abandona y a su madre la echan del piso en el que vive por no pagar el alquiler, decide dedicarse a jugar al golf en torneos profesionales con la esperanza de reunir el suficiente dinero para cambiar su situación. Resulta que Happy tiene un potentísimo swing que manda la pelota a 400 yardas de distancia. Además, debido a su alocado temperamento, comienza a causar furor entre los medios de comunicación por sus extravagantes payasadas en los campos de golf.


DATOS TECNICOS

Format                                   : Matroska
Format version                           : Version 4 / Version 2
File size                                : 2.27 GiB
Duration                                 : 1h 31mn
Overall bit rate                         : 3 537 Kbps


Video
ID                                       : 1
Format                                   : AVC
Duration                                 : 1h 31mn
Bit rate                                 : 2 500 Kbps
Width                                    : 1 920 pixels
Height                                   : 1 040 pixels
Display aspect ratio                     : 1.85:1
Frame rate mode                          : Constant
Frame rate                               : 23.976 fps


Audio #1
ID                                       : 2
Format                                   : AC-3
Duration                                 : 1h 31mn
Bit rate mode                            : Constant
Bit rate                                 : 640 Kbps
Channel(s)                               : 6 channels
Channel positions                        : Front: L C R, Side: L R, LFE
Sampling rate                            : 48.0 KHz
Bit depth                                : 16 bits
Compression mode                         : Lossy
Stream size                              : 421 MiB (18%)
Title                                    : Español Latino
Language                                 : Latin
Default                                  : Yes
Forced                                   : No

Audio #2
ID                                       : 3
Format                                   : AC-3
Duration                                 : 1h 31mn
Bit rate mode                            : Constant
Bit rate                                 : 384 Kbps
Channel(s)                               : 6 channels
Channel positions                        : Front: L C R, Side: L R, LFE
Sampling rate                            : 48.0 KHz
Bit depth                                : 16 bits
Compression mode                         : Lossy
Stream size                              : 253 MiB (11%)
Title                                    : Ingles
Language                                 : English
Default                                  : No
Forced                                   : No

Text
ID                                       : 4
Format                                   : PGS
Title                                    : Español Latino
Language                                 : Latin
Default                                  : Yes
Forced                                   : No